HIERARCHY
ROOT Hips
{
	OFFSET 0.000000 0.000000 0.000000
	CHANNELS 6 Xposition Yposition Zposition Xrotation Yrotation Zrotation
	JOINT LeftUpLeg_virtual
	{
		OFFSET 0.000000 0.000000 0.000000
		CHANNELS 3 Xrotation Yrotation Zrotation
		JOINT LeftUpLeg
		{
			OFFSET 15.427100 -6.655098 0.678600
			CHANNELS 3 Xrotation Yrotation Zrotation
			JOINT LeftLeg
			{
				OFFSET 4.081073 -39.591068 13.024000
				CHANNELS 3 Xrotation Yrotation Zrotation
				JOINT LeftFoot
				{
					OFFSET -4.081074 -37.707932 -15.979700
					CHANNELS 3 Xrotation Yrotation Zrotation
					JOINT LeftToeBase
					{
						OFFSET 5.346399 -15.068900 20.645000
						CHANNELS 3 Xrotation Yrotation Zrotation
						JOINT LeftToe_End
						{
							OFFSET 2.754700 0.931300 11.300900
							CHANNELS 3 Xrotation Yrotation Zrotation
							End Site
							{
								OFFSET 0 0 0
							}
						}
					}
				}
			}
		}
	}
	JOINT RightUpLeg_virtual
	{
		OFFSET 0.000000 0.000000 0.000000
		CHANNELS 3 Xrotation Yrotation Zrotation
		JOINT RightUpLeg
		{
			OFFSET -15.569500 -6.655098 0.678600
			CHANNELS 3 Xrotation Yrotation Zrotation
			JOINT RightLeg
			{
				OFFSET -4.081825 -39.591045 13.023800
				CHANNELS 3 Xrotation Yrotation Zrotation
				JOINT RightFoot
				{
					OFFSET 4.081824 -37.707954 -15.979600
					CHANNELS 3 Xrotation Yrotation Zrotation
					JOINT RightToeBase
					{
						OFFSET -5.346400 -15.068900 20.645000
						CHANNELS 3 Xrotation Yrotation Zrotation
						JOINT RightToe_End
						{
							OFFSET -2.754700 0.931300 11.300900
							CHANNELS 3 Xrotation Yrotation Zrotation
							End Site
							{
								OFFSET 0 0 0
							}
						}
					}
				}
			}
		}
	}
	JOINT Spine_virtual
	{
		OFFSET 0.000000 0.000000 0.000000
		CHANNELS 3 Xrotation Yrotation Zrotation
		JOINT Spine
		{
			OFFSET -0.279200 12.230698 -2.892100
			CHANNELS 3 Xrotation Yrotation Zrotation
			JOINT Spine1
			{
				OFFSET -0.232667 10.192268 -1.242267
				CHANNELS 3 Xrotation Yrotation Zrotation
				JOINT Spine1_split
				{
					OFFSET -0.232667 10.192268 -1.242267
					CHANNELS 3 Xrotation Yrotation Zrotation
					JOINT Spine2
					{
						OFFSET -0.232667 10.192268 -1.242267
						CHANNELS 3 Xrotation Yrotation Zrotation
						JOINT Neck_virtual
						{
							OFFSET 0.000000 0.000000 0.000000
							CHANNELS 3 Xrotation Yrotation Zrotation
							JOINT Neck
							{
								OFFSET -0.418800 17.814194 8.416900
								CHANNELS 3 Xrotation Yrotation Zrotation
								JOINT Head
								{
									OFFSET 0.000000 7.031097 3.806800
									CHANNELS 3 Xrotation Yrotation Zrotation
									JOINT HeadTop_End
									{
										OFFSET 0.000000 24.646606 12.978600
										CHANNELS 3 Xrotation Yrotation Zrotation
										End Site
										{
											OFFSET 0 0 0
										}
									}
								}
							}
						}
						JOINT LeftShoulder_virtual
						{
							OFFSET 0.000000 0.000000 0.000000
							CHANNELS 3 Xrotation Yrotation Zrotation
							JOINT LeftShoulder
							{
								OFFSET 8.476499 7.247704 -3.868750
								CHANNELS 3 Xrotation Yrotation Zrotation
								JOINT LeftShoulder_split
								{
									OFFSET 8.476499 7.247704 -3.868750
									CHANNELS 3 Xrotation Yrotation Zrotation
									JOINT LeftArm
									{
										OFFSET 9.308998 -2.777710 0.208600
										CHANNELS 3 Xrotation Yrotation Zrotation
										JOINT LeftForeArm
										{
											OFFSET 29.972298 0.000000 0.000000
											CHANNELS 3 Xrotation Yrotation Zrotation
											JOINT LeftHand
											{
												OFFSET 26.026505 0.000000 0.000000
												CHANNELS 3 Xrotation Yrotation Zrotation
												End Site
												{
													OFFSET 0 0 0
												}
											}
										}
									}
								}
							}
						}
						JOINT RightShoulder_virtual
						{
							OFFSET 0.000000 0.000000 0.000000
							CHANNELS 3 Xrotation Yrotation Zrotation
							JOINT RightShoulder
							{
								OFFSET -7.570500 7.247704 -3.868750
								CHANNELS 3 Xrotation Yrotation Zrotation
								JOINT RightShoulder_split
								{
									OFFSET -7.570500 7.247704 -3.868750
									CHANNELS 3 Xrotation Yrotation Zrotation
									JOINT RightArm
									{
										OFFSET -9.308998 -2.777710 0.208500
										CHANNELS 3 Xrotation Yrotation Zrotation
										JOINT RightForeArm
										{
											OFFSET -29.972300 0.000000 0.000000
											CHANNELS 3 Xrotation Yrotation Zrotation
											JOINT RightHand
											{
												OFFSET -26.026505 0.000000 0.000000
												CHANNELS 3 Xrotation Yrotation Zrotation
												End Site
												{
													OFFSET 0 0 0
												}
											}
										}
									}
								}
							}
						}
					}
				}
			}
		}
	}
}
MOTION
Frames: 4
Frame Time: 0.03333333
-6.223118 135.108459 -8.537083 0.000000 0.000000 0.000000 -0.313266 -8.989396 4.333794 -119.433029 -30.774087 16.054754 104.183635 -9.003003 -4.902591 23.710563 -7.086163 -33.333499 17.076229 0.664423 -4.684753 0.000000 0.000000 0.000000 3.258266 -14.410302 2.592581 -83.661771 29.833887 -47.417212 115.675414 24.353458 -5.892148 14.431030 -14.742294 33.551040 5.588402 5.857694 -18.143979 0.000000 0.000000 0.000000 4.112324 -9.085370 -0.937739 36.309412 8.015627 0.178802 6.499634 -2.664108 2.813432 -0.163077 -1.139264 0.097861 0.000000 0.000000 0.000000 13.846534 0.109468 4.558924 16.360868 10.211722 -4.147062 -16.695518 -7.950090 -5.830429 0.000000 0.000000 0.000000 7.691343 -1.384854 0.956504 1.217696 6.010076 13.020242 1.714009 -2.144157 1.109453 -26.516463 15.424924 13.295527 8.104500 -4.048494 8.845040 0.000000 0.000000 0.000000 8.985751 -2.056818 1.182990 -8.605372 -22.146031 -34.668753 0.587312 1.971536 -1.871883 -53.658273 35.039635 6.240676 -9.353027 2.274514 3.589660 0.000000 0.000000 0.000000 
-5.164509 133.657806 -7.848515 0.000000 0.000000 0.000000 0.490763 -8.669121 2.587487 -120.416604 -30.555691 13.987745 101.981152 -8.100611 -6.256156 26.784474 -7.202300 -27.621567 18.300954 0.389718 -8.078003 0.000000 0.000000 0.000000 4.254233 -13.628045 1.250487 -79.688958 26.362671 -47.592731 114.478335 24.961459 -4.484544 8.950279 -21.242602 28.666700 1.283235 5.193406 -13.742029 0.000000 0.000000 0.000000 3.586008 -8.934275 -2.211442 34.677178 10.914391 1.075844 6.240352 -1.457611 2.922244 -0.083404 -1.158585 0.166216 0.000000 0.000000 0.000000 14.519305 0.883898 4.400572 15.775855 8.996933 -3.314392 -15.089744 -12.567690 -6.554329 0.000000 0.000000 0.000000 7.786007 -0.298741 0.594423 0.809616 6.398508 14.259805 2.606886 -2.043610 -0.044094 -25.684026 9.682739 17.845234 6.865689 -2.298042 7.400448 0.000000 0.000000 0.000000 10.038481 -1.084385 1.045113 -8.721021 -21.308107 -35.152600 1.557277 2.280231 -1.914345 -43.484365 31.383674 -6.358115 -9.030218 4.879676 3.275913 0.000000 0.000000 0.000000 
-3.811102 130.696274 -7.154144 0.000000 0.000000 0.000000 1.721001 -9.317808 0.998231 -117.264745 -29.513886 13.341226 99.632728 -8.050255 -5.167044 27.217547 -8.282531 -24.675660 12.406170 0.624387 -8.892921 0.000000 0.000000 0.000000 4.726194 -13.485004 -0.034931 -74.231841 20.650420 -44.817973 111.758595 25.076479 -2.560157 -1.170884 -27.444895 21.026172 -3.336293 4.219958 -9.328654 0.000000 0.000000 0.000000 2.749113 -8.034778 -3.168687 32.140251 13.317310 2.013482 6.234889 -0.450279 2.902927 0.064304 -0.844874 0.098045 0.000000 0.000000 0.000000 14.892500 1.568174 3.758966 14.011872 7.668615 -1.053225 -13.435362 -16.046046 -6.994014 0.000000 0.000000 0.000000 7.974752 0.654137 0.329245 0.240728 6.643446 15.385636 3.302376 -1.686243 -1.559124 -25.934380 3.532069 20.813260 6.268402 -0.898454 5.831673 0.000000 0.000000 0.000000 11.083868 -0.142199 0.841024 -8.525282 -20.040902 -34.293779 2.936284 2.246415 -1.832505 -35.503142 25.859943 -15.720814 -9.117706 11.540196 3.520508 0.000000 0.000000 0.000000 
-2.559368 125.841049 -6.590630 0.000000 0.000000 0.000000 3.035972 -10.724890 0.133620 -110.576077 -27.107598 14.537281 97.088202 -8.294915 -2.992015 25.916799 -9.337050 -22.918572 3.720809 0.935208 -6.953534 0.000000 0.000000 0.000000 4.771618 -12.987909 -0.757863 -67.378949 14.018245 -39.681692 107.510654 24.936946 -0.537120 -13.075716 -30.844567 12.811898 -8.202605 3.030802 -5.548607 0.000000 0.000000 0.000000 2.111287 -6.288535 -3.411590 28.958581 14.738312 2.694848 6.304199 0.128096 2.906051 0.183287 -0.427647 -0.063563 0.000000 0.000000 0.000000 14.939365 2.088511 2.939755 11.732338 6.389776 1.768406 -12.278272 -17.876885 -7.655386 0.000000 0.000000 0.000000 7.973746 1.333156 0.263056 -0.498340 7.102040 15.855675 3.865294 -1.346344 -2.585740 -26.817221 -0.793760 21.488648 6.514605 0.535753 4.228572 0.000000 0.000000 0.000000 11.720396 0.625138 0.813178 -8.081212 -18.749101 -32.296573 4.682464 2.131598 -1.419333 -31.433203 19.352728 -20.710891 -9.681960 19.979203 4.198995 0.000000 0.000000 0.000000 
